<svg width="26" height="30" viewBox="0 0 26 30" fill="none" xmlns="http://www.w3.org/2000/svg">
<path d="M22.4427 0H7.64061C5.99787 0 4.66147 1.2617 4.66147 2.8125V3.75H2.61397C1.49137 3.75 0.578125 4.66324 0.578125 5.78584V27.9642C0.578125 29.0868 1.49137 30 2.61397 30H19.3027C20.4253 30 21.3385 29.0868 21.3385 27.9642V26.25H22.4427C24.0854 26.25 25.4219 24.9883 25.4219 23.4375V2.8125C25.4219 1.2617 24.0854 0 22.4427 0ZM19.4635 27.9642C19.4635 28.0529 19.3914 28.125 19.3027 28.125H2.61397C2.52525 28.125 2.45312 28.0529 2.45312 27.9642V5.78584C2.45312 5.69713 2.52525 5.625 2.61397 5.625H19.3027C19.3914 5.625 19.4635 5.69713 19.4635 5.78584V27.9642ZM23.5469 23.4375C23.5469 23.9544 23.0515 24.375 22.4427 24.375H21.3385V5.78584C21.3385 4.66324 20.4253 3.75 19.3027 3.75H6.53646V2.8125C6.53646 2.29559 7.03182 1.875 7.64061 1.875H22.4427C23.0515 1.875 23.5469 2.29559 23.5469 2.8125V23.4375Z" fill="#0071BC"/>
<path d="M15.5781 12.6562H6.67188C6.15414 12.6562 5.73438 12.2365 5.73438 11.7188C5.73438 11.201 6.15414 10.7812 6.67188 10.7812H15.5781C16.0959 10.7812 16.5156 11.201 16.5156 11.7188C16.5156 12.2365 16.0959 12.6562 15.5781 12.6562Z" fill="#0071BC"/>
<path d="M15.5781 16.4062H6.67188C6.15414 16.4062 5.73438 15.9865 5.73438 15.4688C5.73438 14.951 6.15414 14.5312 6.67188 14.5312H15.5781C16.0959 14.5312 16.5156 14.951 16.5156 15.4688C16.5156 15.9865 16.0959 16.4062 15.5781 16.4062Z" fill="#0071BC"/>
<path d="M15.5781 20.1562H6.67188C6.15414 20.1562 5.73438 19.7365 5.73438 19.2188C5.73438 18.701 6.15414 18.2812 6.67188 18.2812H15.5781C16.0959 18.2812 16.5156 18.701 16.5156 19.2188C16.5156 19.7365 16.0959 20.1562 15.5781 20.1562Z" fill="#0071BC"/>
</svg>
